<svg id="Capa_1" data-name="Capa 1" xmlns="http://www.w3.org/2000/svg" viewBox="0 0 40 40"><defs><style>.cls-1{fill:#ff3000;}.cls-1,.cls-2{fill-rule:evenodd;}.cls-2{fill:#fff;}</style></defs><title>icon-logo-entel</title><path class="cls-1" d="M27.9,29.45a.78.78,0,0,0,0,1.26l2.63,2.23a1.44,1.44,0,0,0,1.6.11,15.22,15.22,0,0,0,6.17-12.6A15,15,0,0,0,32.29,8a1.44,1.44,0,0,0-1.6.1l-2.64,2.27a.73.73,0,0,0,.07,1.22,10.92,10.92,0,0,1,4.09,8.84A12.1,12.1,0,0,1,27.9,29.45Z"/><path class="cls-2" d="M8.83,22.31H25.36a1.16,1.16,0,0,0,1.18-1.17V19.2c0-7.66-4.64-13.34-12.85-13.34C6,5.86.83,11,.83,20.12c0,11.3,6.68,14.31,13.65,14.31,5.32,0,10-3.57,10.37-3.92s.52-.77.13-1.13c0,0-3.1-2.84-3.33-3.08s-.77-.08-1.18.23a8.38,8.38,0,0,1-5.94,2c-3.93,0-6.43-2.37-6.43-5.7C8.1,22.24,8.83,22.31,8.83,22.31Zm-.75-4.77a7.3,7.3,0,0,1,.68-3,5.15,5.15,0,0,1,4.93-2.9,5.14,5.14,0,0,1,4.92,2.9,7.3,7.3,0,0,1,.68,3Z"/></svg>